<svg xmlns="http://www.w3.org/2000/svg" viewBox="0 0 512 512">
  <path fill="#4A90E2" d="M0 0h512v512H0z"/>
  <path fill="#fff" d="M256 64c-79.5 0-144 64.5-144 144s64.5 144 144 144 144-64.5 144-144-64.5-144-144-144zm0 240c-52.9 0-96-43.1-96-96s43.1-96 96-96 96 43.1 96 96-43.1 96-96 96zm-1.5-139c-.8 0-1.5.1-1.5.5v22c0 13.6 7.2 25.6 17.7 31.2-.4.2-.8.3-1.3.3-1 0-1.9-.2-2.8-.6l-11-5.5c-1.3-.7-2.5-1.8-3.3-3.1-.8-1.3-1-2.9-.6-4.4l6-13.5c.4-.9.6-1.9.6-3 0-4.3-2.9-7.9-7-8.8-4.2-.9-8.3-2.3-11.7-4.1-6-3.2-10.3-8.6-11.9-15.2-1-4.2-.2-8.5 2.3-11.8 1.4-1.9 3.4-3.3 5.7-4.1 2.2-.8 4.7-.6 6.8.5l9.3 8.1c1.2 1.1 1.9 2.7 1.9 4.5v22.2c0 1.3-.9 2.2-2.2 2.2-1.3 0-2.2-.9-2.2-2.2v-23c0-.7-.2-1.4-.5-2l-6.4-11.1c-.3-.5-.8-.9-1.4-1-.6-.2-1.3-.2-1.9-.2-1.5 0-2.8.6-3.8 1.6-1.1 1.1-1.6 2.6-1.4 4.2.5 4.1 2.3 7.4 5.2 9.2 1.2.8 2.5 1.3 4 1.4l12.4 2.2c1.4.2 2.7-.4 3.5-1.5 1-1.3 1.1-3.1.2-4.5l-6.3-9.7z"/>
</svg>