<svg xmlns="http://www.w3.org/2000/svg" viewBox="0 0 512 512">
  <path fill="#4A90E2" d="M256 0C114.6 0 0 114.6 0 256s114.6 256 256 256 256-114.6 256-256S397.4 0 256 0zm0 464c-114.7 0-208-93.3-208-208S141.3 48 256 48s208 93.3 208 208-93.3 208-208 208z"/>
  <path fill="#fff" d="M256 128c-44.2 0-80 35.8-80 80s35.8 80 80 80 80-35.8 80-80-35.8-80-80-80zm0 128c-30.9 0-56-25.1-56-56s25.1-56 56-56 56 25.1 56 56-25.1 56-56 56z"/>
  <circle cx="256" cy="256" r="60" fill="#4A90E2"/>
  <path fill="#fff" d="M256 220c-39.8 0-72 32.2-72 72s32.2 72 72 72 72-32.2 72-72-32.2-72-72-72z"/>
</svg>