<svg xmlns="http://www.w3.org/2000/svg" viewBox="0 0 512 512">
  <path fill="#FF5C5C" d="M256 56c-99.7 0-182 82.3-182 182 0 37.8 10.4 72.6 28.7 101.2l67.3-101.2c-30-23.5-42-61.2-32-98.2C156.4 228.4 172 218.2 188 218.2c22.1 0 40-17.9 40-40s-17.9-40-40-40-40 17.9-40 40c0 27.6 23.3 47.3 51 50.5v117.4c0 13.3 10.7 24 24 24h144c13.3 0 24-10.7 24-24V286.5c27.7-3.2 51-23 51-50.5 0-22.1-17.9-40-40-40s-40 17.9-40 40c0 39.8 35.8 68.7 80 72.8l-30.7 97.2C346.8 408.5 256 332.6 256 236c0-99.7-82.3-182-182-182z"/>
</svg>